<svg width="40" height="40" fill="none" xmlns="http://www.w3.org/2000/svg"><g clip-path="url(#a)"><path d="M33 20c0-7.18-5.82-13-13-13S7 12.82 7 20c0 6.489 4.754 11.867 10.969 12.842v-9.084h-3.301V20h3.3v-2.864c0-3.258 1.942-5.058 4.911-5.058 1.422 0 2.91.254 2.91.254v3.2h-1.64c-1.614 0-2.118 1.001-2.118 2.03V20h3.606l-.577 3.758h-3.029v9.084C28.246 31.867 33 26.49 33 20Z" fill="#1877F2"/><path d="M25.06 23.758 25.637 20H22.03v-2.439c0-1.028.504-2.03 2.119-2.03h1.64v-3.199s-1.489-.254-2.911-.254c-2.97 0-4.91 1.8-4.91 5.058V20h-3.301v3.758h3.3v9.084a13.094 13.094 0 0 0 4.063 0v-9.084h3.03Z" fill="#fff"/></g><defs><clipPath id="a"><path fill="#fff" transform="translate(7 7)" d="M0 0h26v26H0z"/></clipPath></defs></svg>