<svg width="50" height="50" fill="none" xmlns="http://www.w3.org/2000/svg"><g clip-path="url(#a)"><path d="M34.297 7.5H15.703A8.203 8.203 0 0 0 7.5 15.703v18.594a8.203 8.203 0 0 0 8.203 8.203h18.594a8.203 8.203 0 0 0 8.203-8.203V15.703A8.203 8.203 0 0 0 34.297 7.5Z" fill="url(#b)"/><path d="M34.297 7.5H15.703A8.203 8.203 0 0 0 7.5 15.703v18.594a8.203 8.203 0 0 0 8.203 8.203h18.594a8.203 8.203 0 0 0 8.203-8.203V15.703A8.203 8.203 0 0 0 34.297 7.5Z" fill="url(#c)"/><path d="M25.001 11.328c-3.713 0-4.179.016-5.637.083-1.456.066-2.45.297-3.318.635-.9.35-1.662.816-2.422 1.576a6.712 6.712 0 0 0-1.578 2.422c-.34.87-.57 1.864-.636 3.318-.065 1.459-.082 1.925-.082 5.638s.017 4.178.083 5.636c.067 1.456.297 2.45.635 3.318.35.9.817 1.663 1.577 2.422a6.696 6.696 0 0 0 2.42 1.578c.87.338 1.864.569 3.32.636 1.458.066 1.924.082 5.637.082 3.713 0 4.178-.016 5.636-.082 1.455-.067 2.45-.298 3.32-.636a6.689 6.689 0 0 0 2.42-1.578 6.71 6.71 0 0 0 1.578-2.421c.336-.87.567-1.864.635-3.319.066-1.458.083-1.923.083-5.636s-.017-4.179-.083-5.637c-.068-1.456-.299-2.45-.635-3.319a6.71 6.71 0 0 0-1.578-2.422 6.68 6.68 0 0 0-2.42-1.576c-.873-.338-1.867-.569-3.322-.635-1.459-.067-1.923-.083-5.637-.083h.004Zm-1.226 2.464H25c3.65 0 4.083.013 5.525.079 1.333.06 2.056.283 2.538.47a4.225 4.225 0 0 1 1.572 1.023c.478.479.774.934 1.023 1.572.187.482.41 1.205.47 2.538.066 1.441.08 1.874.08 5.523 0 3.649-.014 4.082-.08 5.523-.06 1.333-.283 2.056-.47 2.538a4.225 4.225 0 0 1-1.023 1.57 4.228 4.228 0 0 1-1.572 1.023c-.481.188-1.205.41-2.538.471-1.441.066-1.874.08-5.525.08-3.65 0-4.083-.014-5.524-.08-1.333-.062-2.057-.284-2.54-.471a4.236 4.236 0 0 1-1.571-1.023 4.238 4.238 0 0 1-1.024-1.571c-.187-.482-.41-1.205-.47-2.538-.066-1.441-.079-1.874-.079-5.525 0-3.651.013-4.082.079-5.523.06-1.333.283-2.057.47-2.539a4.236 4.236 0 0 1 1.024-1.572 4.24 4.24 0 0 1 1.572-1.023c.482-.188 1.206-.41 2.539-.471 1.26-.057 1.75-.075 4.298-.077v.003Zm8.524 2.27a1.64 1.64 0 1 0 0 3.282 1.64 1.64 0 0 0 0-3.283v.001Zm-7.298 1.917a7.021 7.021 0 1 0 .002 14.043A7.021 7.021 0 0 0 25 17.979Zm0 2.464a4.557 4.557 0 1 1 0 9.114 4.557 4.557 0 0 1 0-9.114Z" fill="#fff"/></g><defs><radialGradient id="b" cx="0" cy="0" r="1" gradientUnits="userSpaceOnUse" gradientTransform="matrix(0 -34.6876 32.2622 0 16.797 45.196)"><stop stop-color="#FD5"/><stop offset=".1" stop-color="#FD5"/><stop offset=".5" stop-color="#FF543E"/><stop offset="1" stop-color="#C837AB"/></radialGradient><radialGradient id="c" cx="0" cy="0" r="1" gradientUnits="userSpaceOnUse" gradientTransform="rotate(78.681 -5.294 6.01) scale(15.5055 63.9144)"><stop stop-color="#3771C8"/><stop offset=".128" stop-color="#3771C8"/><stop offset="1" stop-color="#60F" stop-opacity="0"/></radialGradient><clipPath id="a"><path fill="#fff" transform="translate(7.5 7.5)" d="M0 0h35v35H0z"/></clipPath></defs></svg>