<svg width="40" height="40" fill="none" xmlns="http://www.w3.org/2000/svg"><g clip-path="url(#a)"><path d="M26.906 7H13.094A6.094 6.094 0 0 0 7 13.094v13.812A6.094 6.094 0 0 0 13.094 33h13.812A6.094 6.094 0 0 0 33 26.906V13.094A6.094 6.094 0 0 0 26.906 7Z" fill="#fff"/><path d="M26.906 7H13.094A6.094 6.094 0 0 0 7 13.094v13.812A6.094 6.094 0 0 0 13.094 33h13.812A6.094 6.094 0 0 0 33 26.906V13.094A6.094 6.094 0 0 0 26.906 7Z" fill="#0A66C2"/><path d="M25.76 29.109h2.973a.406.406 0 0 0 .406-.407l.002-6.28c0-3.283-.708-5.806-4.544-5.806a3.987 3.987 0 0 0-3.576 1.952.032.032 0 0 1-.053.004.032.032 0 0 1-.007-.02v-1.227a.406.406 0 0 0-.406-.406h-2.822a.406.406 0 0 0-.406.406v11.377a.406.406 0 0 0 .406.406h2.973a.406.406 0 0 0 .406-.406v-5.624c0-1.59.302-3.13 2.273-3.13 1.944 0 1.969 1.82 1.969 3.233v5.521a.406.406 0 0 0 .406.407Zm-14.9-16.053c0 1.205.991 2.196 2.196 2.196a2.207 2.207 0 0 0 2.197-2.197 2.207 2.207 0 0 0-2.197-2.196 2.207 2.207 0 0 0-2.197 2.197Zm.706 16.053h2.977a.406.406 0 0 0 .406-.407V17.325a.406.406 0 0 0-.406-.406h-2.977a.406.406 0 0 0-.406.406v11.377a.406.406 0 0 0 .406.407Z" fill="#fff"/></g><defs><clipPath id="a"><path fill="#fff" transform="translate(7 7)" d="M0 0h26v26H0z"/></clipPath></defs></svg>