<svg width="50" height="50" fill="none" xmlns="http://www.w3.org/2000/svg"><g clip-path="url(#a)"><path d="M25 7.5A17.505 17.505 0 0 0 7.5 25 17.505 17.505 0 0 0 25 42.5 17.505 17.505 0 0 0 42.5 25 17.505 17.505 0 0 0 25 7.5Z" fill="url(#b)"/><path d="M15.421 24.815c5.103-2.222 8.504-3.688 10.205-4.396 4.862-2.021 5.87-2.372 6.53-2.384.145-.003.467.033.678.204.175.143.224.337.249.474.022.136.052.446.027.688-.262 2.768-1.403 9.483-1.982 12.582-.244 1.311-.728 1.751-1.195 1.794-1.017.094-1.788-.672-2.773-1.316-1.54-1.01-2.409-1.639-3.904-2.624-1.729-1.139-.608-1.764.377-2.787.257-.268 4.736-4.34 4.82-4.71.011-.046.022-.218-.081-.31-.102-.09-.252-.06-.361-.035-.156.035-2.614 1.662-7.383 4.88-.698.479-1.33.713-1.898.7-.623-.013-1.826-.353-2.72-.643-1.094-.356-1.967-.545-1.89-1.15.038-.315.473-.637 1.302-.967Z" fill="#fff"/></g><defs><linearGradient id="b" x1="1757.5" y1="7.5" x2="1757.5" y2="3507.5" gradientUnits="userSpaceOnUse"><stop stop-color="#2AABEE"/><stop offset="1" stop-color="#229ED9"/></linearGradient><clipPath id="a"><path fill="#fff" transform="translate(7.5 7.5)" d="M0 0h35v35H0z"/></clipPath></defs></svg>