<svg xmlns="http://www.w3.org/2000/svg" width="65" height="42" fill="none"><path fill="#0E3800" d="M35.959.232c-2.3.602-4.714 2.327-5.889 4.186-1.57 2.495-1.687 5.542-.28 8.338l.495.988v-1.992c0-3.5.877-5.777 3.093-8.02C34.966 2.106 36.752 1.135 38.853.7c2.315-.468 2.233-.435 1.654-.569-.86-.218-3.606-.15-4.548.1Z"/><path fill="#0E3800" d="M40.786.935c-.033.067-.413.301-.827.519-.529.268-.794.502-.876.82-.05.251-.232.637-.414.854-.165.218-.297.503-.297.62 0 .117-.199.402-.43.62-.546.502-.563 1.272-.083 2.377.198.435.347.854.347.92 0 .068-.612.553-1.356 1.09-.76.535-1.82 1.49-2.365 2.126-.943 1.105-2.382 2.31-2.73 2.31-.098 0-.165.067-.165.168 0 .084.133.167.298.167.232 0 .248.034.033.168-.132.084-.182.2-.132.268.116.1.33-.017 2.018-1.156.512-.351 1.009-.586 1.091-.535.1.05.166.435.166.853 0 .938.413 1.022.579.101.05-.335.231-1.021.38-1.524.281-.87.314-.904 1.356-1.373.596-.268 1.423-.67 1.87-.904l.776-.419.15.386c.082.2.38.62.661.937l.513.553-.546 1.607c-.314.904-.53 1.758-.48 1.91.083.434.53.367.53-.085 0-.402.578-1.456.793-1.456.067 0 .215.2.315.452.165.418.182.335.198-.637.017-.92.066-1.121.314-1.188.43-.118.976.134 1.092.485.05.168.447.603.893.988.579.52.86.653 1.108.57.232-.084.447-.017.728.234.347.301.38.318.298.05-.1-.251-.05-.285.231-.2.331.116.348.1.116-.235-.165-.218-.231-.62-.199-1.038.067-.838-.363-1.775-1.174-2.512-.397-.368-.579-.687-.579-1.005 0-.385.05-.435.38-.351.365.083.365.083.067-.268-.463-.52-.215-.754.513-.436.793.335 2.15 1.19 2.712 1.708.695.637.728 1.273.215 3.55-.546 2.428-.48 3.131.364 4.37.579.871.595.888.48 2.06-.067.653-.182 2.06-.265 3.114-.165 2.378-.53 3.55-1.62 5.241-.795 1.24-1.258 2.411-2.184 5.643-.413 1.457-.513 1.607-1.307 1.976-.545.268-.612.351-.71 1.205-.067.503-.216 1.29-.332 1.758-.148.486-.182 1.072-.115 1.373.132.704.578 1.39.893 1.39.132 0 .463-.502.744-1.138.281-.62.843-1.809 1.24-2.63.397-.836 1.059-2.243 1.456-3.13.413-.888.976-1.976 1.273-2.395.298-.435.86-1.507 1.274-2.394.893-1.926 1.687-2.914 3.44-4.287 2.382-1.858 3.11-2.327 5.54-3.5C63.264 19.656 65 18.417 65 17.446c0-.62-.447-1.373-.976-1.658-.794-.402-2.745-.87-5.954-1.423-1.687-.302-3.225-.603-3.44-.687-.348-.134-.38-.234-.38-1.39 0-1.021-.1-1.523-.513-2.562-.81-2.093-2.332-4.906-3.044-5.676-.777-.82-1.306-.988-3.555-1.155-1.109-.067-1.836-.218-2.481-.502-.497-.218-1.24-.486-1.638-.587-.413-.117-1.009-.385-1.323-.602-.628-.436-.777-.47-.91-.268Zm16.937 17.749c-.315.25-.96.803-1.44 1.239-1.074.988-1.967 1.59-2.563 1.724-.413.1-.463.067-.463-.284 0-.419.281-2.16.43-2.68.083-.3.678-.368 3.374-.435l1.24-.017-.578.453ZM23.72 1.722c-.347.418-.38 1.741-.1 3.08.414 1.96 1.555 4.17 2.928 5.593l1.142 1.206-.646-1.34c-1.323-2.729-1.505-5.09-.595-7.484.1-.252-.1-.402-.992-.804C24.2 1.403 24 1.37 23.72 1.722Z"/><path fill="#375C2B" d="M14.788 6.343c-1.406.118-2.431.369-3.39.854-1.158.586-3.424 2.16-5.127 3.567-1.621 1.34-3.474 2.679-3.805 2.763a2.588 2.588 0 0 0-.496.217c-.182.1-.661.218-1.075.235-.397.033-.794.117-.876.2-.298.302 3.043 2.261 5.21 3.031 1.587.57 4.134.653 5.937.185 1.687-.419 4.3-1.675 6.054-2.897 1.439-1.022 3.655-2.143 4.995-2.545.496-.151 1.372-.268 1.935-.268.579 0 1.091-.084 1.14-.184.067-.1-.545-.838-1.355-1.641-2.68-2.646-5.673-3.801-9.147-3.517Z"/><path fill="#0E3800" d="M23.522 13.359c-2.812.486-5.326 2.043-6.715 4.17-1.29 1.942-1.605 3.114-1.588 5.877.016 1.925.083 2.478.446 3.717 2.15 7.166 8.27 13.043 15.084 14.45 1.323.268 4.88.553 4.714.368-.05-.05-.86-.25-1.803-.452-6.5-1.34-11.61-5.123-14.306-10.616-1.175-2.36-1.588-3.884-1.704-6.212-.149-3.248.629-5.609 2.53-7.568 1.787-1.859 4.169-2.713 7.592-2.746h1.82l-.745-.352c-1.439-.653-3.671-.92-5.325-.636Z"/></svg>