<svg width="27" height="32" fill="none" xmlns="http://www.w3.org/2000/svg"><path fill-rule="evenodd" clip-rule="evenodd" d="M16.313 5.444c0-2.913 2.375-5.277 5.301-5.277a5.29 5.29 0 0 1 5.303 5.277c0 2.915-2.375 5.279-5.303 5.279a5.299 5.299 0 0 1-3.775-1.574l-7.338 4.997a5.282 5.282 0 0 1-.288 3.035l8.046 5.288a5.297 5.297 0 0 1 3.357-1.192 5.29 5.29 0 0 1 5.3 5.28c0 2.912-2.374 5.276-5.302 5.276a5.29 5.29 0 0 1-5.3-5.277 5.225 5.225 0 0 1 .457-2.147l-7.984-5.242a5.298 5.298 0 0 1-3.486 1.3A5.288 5.288 0 0 1 0 15.187a5.288 5.288 0 0 1 5.301-5.276c1.685 0 3.182.78 4.153 1.996l7.114-4.843a5.25 5.25 0 0 1-.255-1.62Z" fill="#0E3800"/></svg>