<svg xmlns="http://www.w3.org/2000/svg" width="100" height="98" fill="none"><g fill="#0E3800"><path d="m31.4 96.633 3.46-8.93 1.03.398-3.46 8.93-1.03-.398ZM28.621 84.353c.588.365 1.016.809 1.282 1.333.261.525.362 1.093.302 1.705-.064.613-.29 1.232-.677 1.858-.387.625-.843 1.106-1.366 1.442a3.173 3.173 0 0 1-1.656.525c-.581.015-1.147-.149-1.699-.49a3.403 3.403 0 0 1-.843-.743 2.747 2.747 0 0 1-.527-1.04c-.109-.394-.118-.833-.028-1.316.09-.483.312-1.01.665-1.58l.246-.397 4.707 2.915-.502.81-3.753-2.323a2.355 2.355 0 0 0-.364 1.05c-.033.354.029.688.184 1 .152.31.398.57.737.781.374.231.755.339 1.143.322.383-.015.739-.125 1.067-.329.328-.204.596-.474.804-.81l.335-.541c.286-.462.448-.902.488-1.32.035-.42-.039-.8-.221-1.144a2.315 2.315 0 0 0-.846-.865 2.389 2.389 0 0 0-.732-.31 1.68 1.68 0 0 0-.718-.004c-.234.052-.457.16-.667.323l-.75-.816c.287-.248.614-.42.984-.513.368-.091.758-.099 1.17-.024.41.078.822.245 1.235.501ZM16.47 84.076l.63-.691 2.75 2.507-.63.692-2.75-2.508Zm.789 3.048-.816-.743 4.612-5.06c.21-.23.335-.433.373-.61a.703.703 0 0 0-.055-.467 1.427 1.427 0 0 0-.292-.367 1.954 1.954 0 0 0-.233-.188c-.069-.04-.123-.073-.164-.098l.502-.884c.074.03.17.08.288.15.12.066.256.17.409.308.23.21.41.465.541.766.129.299.173.615.134.95-.042.333-.204.654-.485.963l-4.814 5.28ZM15.818 72.268l-6.43 3.202-.475-.955 1.005-.5-.042-.084a1.805 1.805 0 0 1-1.122-.25c-.342-.203-.617-.514-.825-.932-.211-.425-.29-.825-.239-1.203.049-.38.205-.734.469-1.064l-.034-.067c-.414 0-.8-.115-1.16-.347-.362-.23-.658-.576-.887-1.037-.286-.574-.34-1.134-.162-1.68.175-.543.64-1.002 1.397-1.38l4.303-2.142.492.988-4.303 2.143c-.475.236-.75.535-.824.896a1.61 1.61 0 0 0 .151 1.069c.225.452.537.734.934.846.394.114.8.067 1.215-.14l4.186-2.085.5 1.005-4.404 2.193c-.365.182-.6.447-.706.795-.107.35-.068.712.118 1.086.128.257.316.463.563.618.247.152.526.236.837.252.306.014.617-.057.933-.214l4.018-2 .492.987Z"/><path d="M11.214 61.074c.19.666.206 1.282.05 1.848a3.076 3.076 0 0 1-.926 1.464c-.46.41-1.044.716-1.752.917-.707.201-1.368.25-1.98.145a3.173 3.173 0 0 1-1.579-.727c-.439-.38-.747-.883-.924-1.507a3.405 3.405 0 0 1-.124-1.117c.02-.385.125-.76.312-1.124.185-.364.474-.694.866-.99.392-.297.91-.537 1.555-.72l.45-.128 1.515 5.325-.917.261-1.208-4.245c-.39.11-.716.287-.977.53-.263.24-.442.528-.537.863-.097.332-.091.69.018 1.074.12.423.33.759.627 1.008.294.247.631.405 1.01.476.38.07.76.05 1.142-.058l.611-.174c.522-.148.939-.364 1.25-.647.308-.285.51-.617.607-.994.094-.377.08-.78-.042-1.209-.08-.278-.19-.52-.332-.722a1.682 1.682 0 0 0-.528-.487 1.7 1.7 0 0 0-.711-.21l-.004-1.108c.379.01.736.104 1.072.283.334.18.627.438.88.77.251.335.443.735.576 1.203ZM7.023 47.596l-1.36-.108.02-.223-2.895-3.424.126-1.36 3.062 3.646-.009.094 1.056 1.375Zm2.513 1.266L0 47.978l.102-1.099 9.536.884-.102 1.099Zm.421-4.545L6.16 46.783l-.69-.853 4.617-3.01-.129 1.397ZM6.49 39.684l4.156 1.182-.302 1.062-6.908-1.966.291-1.025 1.08.307.025-.09a2.051 2.051 0 0 1-.635-.979c-.122-.39-.11-.847.04-1.369.132-.468.345-.85.637-1.146a2.016 2.016 0 0 1 1.096-.573c.44-.086.953-.045 1.54.122l4.39 1.25-.302 1.06-4.318-1.228c-.542-.154-1.005-.133-1.388.062-.386.195-.65.538-.79 1.03-.096.339-.108.663-.037.971.072.306.227.575.465.809.238.233.558.406.96.52ZM13.948 32.313c-.29.58-.681 1.021-1.176 1.322a3.146 3.146 0 0 1-1.668.444c-.617-.005-1.258-.172-1.922-.503-.67-.334-1.194-.746-1.573-1.238a3.139 3.139 0 0 1-.655-1.6c-.058-.576.057-1.154.346-1.735.29-.58.68-1.02 1.173-1.317a3.097 3.097 0 0 1 1.673-.442c.621.003 1.267.171 1.937.505.664.33 1.184.742 1.558 1.235.376.49.593 1.023.65 1.6.06.572-.054 1.149-.343 1.73Zm-.888-.442c.22-.44.287-.86.203-1.257a2.233 2.233 0 0 0-.577-1.076c-.3-.32-.665-.587-1.095-.801a3.852 3.852 0 0 0-1.303-.393 2.262 2.262 0 0 0-1.215.184c-.37.17-.666.476-.885.917-.22.441-.286.86-.199 1.26.087.398.282.758.585 1.08.303.321.67.589 1.1.803.43.214.862.344 1.299.39.436.048.838-.015 1.206-.187s.662-.479.881-.92ZM16.234 27.899l-7.05-2.582.698-.926 5.325 2.076.045-.06-3.465-4.538.71-.94 5.287 2.093.045-.06-3.438-4.541.7-.926 4.412 6.075-.654.866-5.35-2.072-.067.09 3.456 4.58-.654.865ZM22.635 18.741l.285.424c.2.298.397.634.59 1.007.194.37.37.727.526 1.07.156.343.278.618.366.825l-.623.567-.414-.691c-.172-.286-.37-.601-.596-.945-.22-.343-.456-.685-.707-1.026l-.311-.424.884-.807ZM34.86 12.79l-2.594-6.698 1.03-.399 2.594 6.698-1.03.399Zm-2.503-8.017c-.2.078-.4.077-.598-.004a.706.706 0 0 1-.405-.41.706.706 0 0 1 .023-.575.785.785 0 0 1 .44-.406.769.769 0 0 1 .593.005.7.7 0 0 1 .41.409.7.7 0 0 1-.028.577.768.768 0 0 1-.435.404ZM43.244 3.113l.172.919-3.806.712-.172-.92 3.806-.711Zm-1.346 7.558-1.502-8.034c-.075-.405-.043-.76.096-1.065.14-.305.349-.553.627-.745a2.38 2.38 0 0 1 .923-.382c.266-.05.488-.069.664-.057.177.01.31.027.4.049l-.138.996a5.439 5.439 0 0 0-.242-.026c-.1-.01-.229 0-.385.029-.358.067-.6.206-.726.416-.123.21-.151.49-.086.84l1.454 7.777-1.085.202ZM55.193 12.882a2.425 2.425 0 0 1-.483-.138 1.319 1.319 0 0 1-.283-.139l.454-.904c.251.116.48.184.685.204a.852.852 0 0 0 .589-.171c.189-.13.383-.361.582-.695l.305-.514-1.284-7.585 1.176.22.898 5.99.073.014 3.001-5.262 1.177.22-4.51 7.53c-.203.34-.426.61-.67.812a1.91 1.91 0 0 1-.794.408 2.178 2.178 0 0 1-.916.01ZM64.497 12.73c-.605-.235-1.08-.584-1.424-1.049a3.146 3.146 0 0 1-.596-1.62c-.053-.615.055-1.269.323-1.96.27-.698.633-1.258 1.087-1.68a3.14 3.14 0 0 1 1.534-.8c.567-.112 1.154-.05 1.758.184.605.234 1.078.583 1.42 1.047.345.464.543 1.006.595 1.624.054.62-.054 1.278-.324 1.976-.268.691-.63 1.247-1.087 1.665-.453.42-.964.685-1.532.796-.565.112-1.15.05-1.754-.184Zm.358-.925c.46.178.883.207 1.27.086.388-.12.728-.345 1.019-.674.29-.328.523-.716.697-1.164a3.85 3.85 0 0 0 .27-1.334 2.263 2.263 0 0 0-.294-1.193c-.205-.353-.536-.619-.996-.797-.459-.177-.883-.205-1.272-.081-.389.123-.73.35-1.022.682A3.852 3.852 0 0 0 63.83 8.5a3.812 3.812 0 0 0-.27 1.33c-.006.439.094.833.3 1.184.204.35.537.614.996.792ZM74.223 14.316l2.235-3.61.938.58-3.781 6.107-.938-.58.64-1.034-.064-.04a2.357 2.357 0 0 1-1.158.378c-.435.028-.883-.101-1.344-.387a2.4 2.4 0 0 1-.863-.88 2.061 2.061 0 0 1-.227-1.197c.042-.447.224-.93.546-1.45l2.402-3.88.939.58-2.364 3.817c-.275.446-.37.878-.286 1.297.088.421.327.752.716.994.234.144.508.231.823.261.317.032.635-.024.952-.17.32-.142.597-.405.834-.786ZM84.59 21.92l-3.448 2.603-.665-.88 5.732-4.33.642.852-.895.676.056.075a2.05 2.05 0 0 1 1.164.082c.385.138.742.424 1.069.857.293.388.47.787.53 1.199.063.41-.005.816-.204 1.22-.196.402-.538.787-1.025 1.156l-3.643 2.75-.665-.88 3.583-2.706c.45-.34.713-.722.787-1.145.077-.426-.038-.843-.346-1.25a1.925 1.925 0 0 0-.752-.616 1.64 1.64 0 0 0-.926-.116c-.33.05-.66.2-.994.452ZM86.062 32.482c-.309-.62-.438-1.222-.388-1.807.054-.585.267-1.12.64-1.61.378-.487.895-.895 1.554-1.223.659-.327 1.299-.496 1.92-.507a3.172 3.172 0 0 1 1.686.426c.5.293.896.73 1.185 1.31.167.335.276.694.327 1.076.05.382.017.77-.1 1.163-.115.391-.338.769-.67 1.132-.33.363-.796.694-1.396.993l-.419.209-2.467-4.957.853-.425 1.968 3.952c.363-.18.65-.415.863-.701.214-.285.337-.6.37-.947a1.912 1.912 0 0 0-.216-1.052c-.196-.394-.463-.686-.802-.876a2.152 2.152 0 0 0-1.08-.282c-.387 0-.757.09-1.112.266l-.569.283c-.485.242-.855.53-1.11.866-.25.337-.388.7-.413 1.09-.023.387.065.78.263 1.18.13.259.283.475.46.648.18.175.383.302.607.382a1.7 1.7 0 0 0 .738.076l.208 1.088c-.374.06-.743.034-1.106-.081a2.76 2.76 0 0 1-1.007-.596 3.645 3.645 0 0 1-.787-1.076ZM88.712 39.418c-.19-.666-.206-1.282-.05-1.848.16-.564.469-1.053.925-1.464.46-.41 1.045-.716 1.752-.917.708-.201 1.368-.25 1.981-.145a3.172 3.172 0 0 1 1.579.727c.438.38.747.883.924 1.507.102.36.144.732.123 1.117-.02.385-.124.76-.312 1.124-.185.364-.473.694-.865.99-.393.297-.91.536-1.556.72l-.45.128-1.514-5.325.917-.261 1.208 4.245c.39-.11.716-.287.977-.53.262-.24.441-.528.537-.863.097-.332.09-.69-.019-1.074-.12-.423-.329-.759-.626-1.008a2.153 2.153 0 0 0-1.011-.476c-.38-.07-.76-.05-1.14.058l-.613.174c-.521.148-.938.364-1.25.647-.307.285-.51.617-.606.994-.094.377-.08.78.042 1.209.08.278.19.52.332.722.146.205.322.367.527.487a1.7 1.7 0 0 0 .712.21l.004 1.108a2.362 2.362 0 0 1-1.073-.283 2.76 2.76 0 0 1-.88-.77 3.641 3.641 0 0 1-.576-1.203ZM90.01 46.387c-.055-.596.047-1.136.306-1.62.262-.485.657-.882 1.186-1.19.531-.31 1.176-.5 1.933-.57.752-.07 1.415 0 1.992.206.576.206 1.036.525 1.38.957.344.431.543.948.6 1.55.042.466-.001.84-.131 1.125a1.907 1.907 0 0 1-.464.673 8.515 8.515 0 0 1-.443.383l.008.094 3.52-.327.102 1.1-9.536.883-.098-1.062 1.099-.102-.012-.13a7.038 7.038 0 0 1-.526-.299 2.054 2.054 0 0 1-.585-.589c-.178-.262-.288-.623-.33-1.082Zm1.001.057c.041.441.19.803.448 1.086.261.282.604.484 1.029.604.427.12.91.155 1.451.105.534-.05.994-.17 1.38-.362.39-.193.681-.452.877-.777.198-.325.277-.711.235-1.158-.043-.466-.198-.843-.466-1.13a2.156 2.156 0 0 0-1.028-.605 3.849 3.849 0 0 0-1.381-.102 3.96 3.96 0 0 0-1.366.361c-.398.197-.706.46-.922.79-.214.333-.3.729-.257 1.188ZM90.035 56.976l6.908 1.965-.291 1.026-1.08-.307-.026.09c.328.249.548.562.661.941.116.38.11.795-.018 1.244-.13.456-.341.806-.634 1.05a2.11 2.11 0 0 1-1.063.47l-.02.073c.306.278.514.624.623 1.038.112.414.098.869-.043 1.363-.176.618-.513 1.068-1.011 1.351-.496.284-1.15.31-1.962.079l-4.624-1.316.302-1.061 4.624 1.315c.51.145.913.11 1.212-.107a1.61 1.61 0 0 0 .608-.892c.138-.485.098-.904-.12-1.254-.214-.35-.545-.588-.992-.715l-4.498-1.28.307-1.08 4.732 1.347c.393.112.745.074 1.058-.112.315-.186.53-.48.644-.882a1.514 1.514 0 0 0 0-.836 1.731 1.731 0 0 0-.448-.75 1.877 1.877 0 0 0-.833-.47l-4.318-1.229.302-1.061Z"/><path d="M84.47 65.502c.083-.168.17-.31.264-.427.09-.12.16-.197.211-.235l.746.685c-.181.21-.31.41-.384.603a.852.852 0 0 0 .003.612c.073.218.243.468.51.75l.41.435 7.647.84-.534 1.072-6.007-.777-.033.067 4.24 4.327-.534 1.071L85 68.127a3.113 3.113 0 0 1-.598-.867 1.91 1.91 0 0 1-.175-.876c.012-.29.093-.584.241-.882ZM81.391 82.086l-2.91-3.194.815-.743 6.452 7.077-.816.744-2.369-2.599-.069.063c.126.388.138.776.036 1.164-.102.392-.362.778-.779 1.159-.361.33-.744.545-1.148.648a1.982 1.982 0 0 1-1.234-.083c-.421-.157-.84-.463-1.256-.919L75.04 82.03l.815-.743 3.025 3.317c.384.422.79.648 1.22.679.428.035.835-.123 1.22-.473.267-.244.455-.519.564-.825.107-.304.122-.62.047-.948-.078-.325-.257-.643-.539-.951ZM70.983 84.553c.588-.365 1.176-.55 1.763-.554.587 0 1.14.163 1.662.49.52.33.974.808 1.36 1.434.388.625.616 1.247.683 1.865a3.173 3.173 0 0 1-.268 1.717c-.246.527-.645.96-1.196 1.302a3.405 3.405 0 0 1-1.04.424 2.745 2.745 0 0 1-1.168.008c-.4-.079-.796-.266-1.189-.562-.392-.296-.765-.729-1.118-1.299l-.246-.397 4.708-2.915.502.811-3.753 2.324c.213.345.472.61.777.794.303.187.629.28.977.281.346.002.689-.102 1.028-.312.374-.231.64-.524.798-.879.157-.35.217-.717.181-1.102a2.473 2.473 0 0 0-.367-1.082l-.335-.54c-.285-.462-.607-.803-.965-1.025a2.024 2.024 0 0 0-1.122-.312 2.316 2.316 0 0 0-1.15.371 2.387 2.387 0 0 0-.605.517c-.157.197-.265.41-.324.64-.057.234-.06.482-.008.743l-1.064.307a2.364 2.364 0 0 1-.02-1.11c.082-.37.249-.722.5-1.057a3.643 3.643 0 0 1 .999-.882ZM67.496 97.031l-3.46-8.93 1.03-.399 3.46 8.93-1.03.399ZM59.623 86.782l1.815 9.708-1.048.196-.21-1.122-.129.025a9.796 9.796 0 0 1-.243.53c-.108.22-.281.43-.52.63-.24.204-.59.349-1.05.435-.595.11-1.147.06-1.656-.152-.509-.213-.942-.568-1.298-1.066-.356-.498-.604-1.118-.742-1.86-.14-.747-.134-1.419.018-2.015.152-.593.425-1.082.82-1.466.395-.382.886-.627 1.475-.737.453-.085.83-.078 1.131.021.302.102.544.236.727.402.184.169.327.31.431.424l.092-.018-.698-3.732 1.085-.203Zm.089 6.377c-.1-.533-.266-.989-.499-1.367-.232-.375-.52-.65-.862-.823-.343-.171-.732-.216-1.167-.134-.454.084-.81.275-1.069.57-.26.3-.43.668-.507 1.104-.08.44-.072.91.022 1.413.093.497.253.93.48 1.3.226.373.513.647.863.823.348.18.751.226 1.211.14.441-.082.791-.264 1.05-.544.259-.276.428-.628.506-1.055.08-.424.07-.9-.028-1.427Z"/></g></svg>