<svg width="32" height="42" fill="none" xmlns="http://www.w3.org/2000/svg"><g fill="#0E3800"><path d="M6.891.977h3.778v27.695c0 .026-.012.04-.038.04H6.048c-.025 0-.038-.013-.038-.038V8.814c0-.04-.013-.045-.04-.016a15.737 15.737 0 0 1-5.934 3.96c-.024.01-.036.002-.036-.024V7.997a.04.04 0 0 1 .025-.037c1.421-.562 2.637-1.427 3.828-2.462C5.263 4.274 6.327 2.756 6.89.977Zm.162 5.122v21.457c0 .006.002.012.006.017.005.004.01.006.017.006h2.521a.023.023 0 0 0 .016-.006.024.024 0 0 0 .007-.017V2.126a.025.025 0 0 0-.025-.024H7.626a.035.035 0 0 0-.032.022c-.668 1.68-1.765 3.103-3.17 4.326-1.086.944-2.202 1.704-3.35 2.28a.055.055 0 0 0-.033.053v2.297a.016.016 0 0 0 .008.014.016.016 0 0 0 .008.002c.003 0 .006 0 .008-.002a14.511 14.511 0 0 0 4.072-2.996A187.81 187.81 0 0 0 7.03 6.09c.015-.017.023-.014.023.009ZM21.927.977h.857c.23.015.461.033.691.054a8.481 8.481 0 0 1 3.231.947c1.61.848 2.81 2.216 3.622 3.863a15.016 15.016 0 0 1 1.38 4.445c.074.493.132.984.172 1.474.118 1.449.15 2.96.093 4.535-.07 1.932-.303 3.934-.872 5.724-.858 2.7-2.617 5.143-5.362 6.14a9.194 9.194 0 0 1-2.508.521c-1.468.103-2.922-.048-4.259-.555-1.601-.607-2.9-1.655-3.895-3.146-1.04-1.557-1.627-3.489-1.932-5.395-.337-2.108-.402-4.187-.308-6.471.066-1.574.253-3.032.563-4.374.64-2.776 2.216-5.553 4.839-6.854a8.405 8.405 0 0 1 2.67-.81c.286-.037.626-.07 1.018-.098Zm1.246 26.673c1.413-.1 2.782-.535 3.9-1.394 2.319-1.782 3.285-4.687 3.628-7.503.132-1.082.204-2.17.217-3.264a37.141 37.141 0 0 0-.158-4.168 14.945 14.945 0 0 0-1.046-4.256c-.38-.92-.834-1.711-1.36-2.374a6.966 6.966 0 0 0-4.3-2.54 9.582 9.582 0 0 0-3.638.063 6.672 6.672 0 0 0-2.902 1.383c-2.326 1.92-3.209 5.02-3.485 7.942a33.406 33.406 0 0 0 .053 7.011c.124 1.065.333 2.094.63 3.086.412 1.383 1.07 2.729 2.048 3.776 1.093 1.172 2.468 1.888 4.125 2.15.73.115 1.493.144 2.288.088Z"/></g><path d="M22.312 24.571a4.633 4.633 0 0 1-2.588-.88c-.841-.614-1.436-1.356-1.785-2.224a9.039 9.039 0 0 1-.406-1.258 17.335 17.335 0 0 1-.412-2.622 37.175 37.175 0 0 1-.091-4.508c.035-.9.114-1.765.235-2.595.182-1.254.503-2.576 1.132-3.642a4.697 4.697 0 0 1 1.32-1.447c1.022-.731 2.367-.955 3.627-.746a4.61 4.61 0 0 1 1.984.855c.852.642 1.453 1.431 1.8 2.367.555 1.489.73 3.027.818 4.697a37.425 37.425 0 0 1-.055 4.864 17.473 17.473 0 0 1-.42 2.726 8.223 8.223 0 0 1-.514 1.503c-.363.791-.994 1.524-1.723 2.047-.854.613-1.828.901-2.922.863Zm2.264-18.316c-.843-.63-1.909-.806-2.99-.584-1.165.24-1.988 1.11-2.44 2.123-.546 1.22-.791 2.683-.905 4.057a34.944 34.944 0 0 0 .015 5.739c.097 1.18.3 2.376.729 3.495.239.623.645 1.173 1.22 1.65.874.727 1.969.997 3.115.743.636-.14 1.204-.49 1.665-.93.5-.477.86-1.023 1.083-1.636.157-.435.281-.864.371-1.288.217-1.02.348-2.145.394-3.374.08-2.162.044-4.098-.256-6.02a10.885 10.885 0 0 0-.506-2.006c-.28-.777-.778-1.433-1.495-1.969ZM22.548 31.497a.015.015 0 0 1-.015.014h-1.554a.015.015 0 0 1-.015-.014v-1.505a.015.015 0 0 1 .015-.015h1.554c.004 0 .008.001.01.004a.015.015 0 0 1 .005.01v1.506Zm-.459-1.044a.017.017 0 0 0-.005-.012.017.017 0 0 0-.012-.005h-.632a.017.017 0 0 0-.012.005.017.017 0 0 0-.005.012v.582c0 .005.002.01.005.013a.017.017 0 0 0 .012.005h.632a.017.017 0 0 0 .012-.005.017.017 0 0 0 .005-.013v-.582ZM2.508 33.248c.4-.621.972-.963 1.714-1.023a2.193 2.193 0 0 1 1.577.533c.91.783 1.11 1.97 1.032 3.144-.06.919-.365 1.78-1.076 2.363-.538.44-1.154.597-1.846.47-.485-.087-.975-.446-1.294-.848a.017.017 0 0 0-.009-.005h-.01a.017.017 0 0 0-.012.016v3.097c0 .019-.01.028-.028.028H1.02a.02.02 0 0 1-.015-.006.02.02 0 0 1-.006-.014l.001-8.622a.016.016 0 0 1 .005-.011.015.015 0 0 1 .005-.004.016.016 0 0 1 .007-.001h1.437c.006 0 .012.002.016.005.004.004.006.01.006.015v.854c0 .039.01.042.031.01Zm.259 1.062c-.236.487-.232 1.177-.152 1.73.096.66.471 1.345 1.214 1.415.642.062 1.129-.376 1.287-.972.117-.444.147-.944.089-1.5a2.38 2.38 0 0 0-.146-.61c-.196-.503-.652-.876-1.21-.838-.488.034-.849.292-1.082.775ZM9.437 38.535c-.758-.444-1.213-1.262-1.361-2.188-.138-.857-.1-1.681.217-2.48.402-1.008 1.143-1.652 2.129-1.835.847-.159 1.761.02 2.428.624.633.575 1.005 1.311 1.113 2.21.06.495.047.982-.041 1.46-.235 1.275-1.129 2.35-2.309 2.588-.757.153-1.482.026-2.176-.38Z" fill="#0E3800"/><path d="M10.219 37.247c-.38-.253-.607-.72-.681-1.25-.069-.49-.05-.96.109-1.417.2-.576.571-.944 1.064-1.049.424-.09.88.012 1.214.357.317.329.502.75.557 1.262.03.284.023.562-.021.836-.118.728-.564 1.342-1.155 1.478-.378.087-.74.015-1.087-.217Z" fill="#FFFFFB"/><path d="M17.961 35.433c.521.185.87.643 1.115 1.132.332.66.68 1.342 1.044 2.044a.02.02 0 0 1 .002.01.019.019 0 0 1-.019.018h-1.646a.045.045 0 0 1-.025-.007.047.047 0 0 1-.017-.02l-.825-1.898c-.17-.388-.376-.769-.87-.748-.019.001-.029.011-.029.03v2.61c0 .022-.01.033-.032.033H15.13a.023.023 0 0 1-.017-.007.023.023 0 0 1-.007-.016v-6.21c0-.026.014-.039.04-.039h1.516c.019 0 .028.009.028.028v2.494c0 .027.014.039.04.035.34-.045.532-.185.67-.512.12-.29.226-.571.316-.844.068-.206.164-.416.288-.63.395-.68 1.162-.65 1.84-.586.025.003.037.016.037.041l.009 1.03c0 .025-.012.037-.037.035-.199-.01-.647-.005-.801.15a.615.615 0 0 0-.135.196 8.626 8.626 0 0 0-.268.71c-.118.354-.343.72-.69.886-.028.013-.027.024.001.035ZM22.548 38.617a.02.02 0 0 1-.02.02h-1.544a.02.02 0 0 1-.02-.02v-6.233a.02.02 0 0 1 .006-.014.02.02 0 0 1 .014-.006h1.544a.02.02 0 0 1 .014.006.02.02 0 0 1 .006.014v6.233ZM28.825 35.453c.584.163.954.527 1.11 1.093.105.38.083.75-.065 1.108-.158.38-.459.656-.903.828-.329.127-.687.153-1.035.153-1.248.002-2.484.002-3.71 0a.027.027 0 0 1-.018-.007.026.026 0 0 1-.008-.018v-6.229c0-.01.006-.016.016-.016 1.223-.003 2.432-.002 3.63.002.916.004 1.864.368 1.94 1.428.055.787-.265 1.33-.96 1.63-.024.012-.023.02.003.028Zm-3.038-2.013v1.506a.014.014 0 0 0 .014.014h1.4c.267 0 .523-.072.713-.2.189-.127.295-.3.295-.48v-.173c0-.18-.106-.354-.295-.481-.19-.128-.446-.2-.714-.2h-1.4a.014.014 0 0 0-.013.014Zm2.192 2.715a1.62 1.62 0 0 0-.504-.132 12.696 12.696 0 0 0-1.655-.04c-.022 0-.032.012-.032.033v1.525c0 .023.01.034.034.035.464.002.921 0 1.37-.005.358-.003.939-.07 1.081-.431.136-.346.087-.819-.294-.985Z" fill="#0E3800"/></svg>