<svg xmlns="http://www.w3.org/2000/svg" width="32" height="32" fill="none"><path fill="#fff" d="M0 0h32v32H0z"/><path fill="#0E3800" d="M17.703 6.437c-1.132.297-2.321 1.146-2.9 2.06-.773 1.23-.83 2.73-.138 4.106l.245.486v-.98c0-1.723.431-2.844 1.522-3.95.782-.799 1.662-1.277 2.696-1.491 1.14-.23 1.099-.214.814-.28-.424-.108-1.775-.075-2.24.05Z"/><path fill="#0E3800" d="M20.08 6.783c-.017.033-.204.149-.408.256-.26.132-.39.247-.431.404a1.117 1.117 0 0 1-.204.42c-.081.107-.146.247-.146.305 0 .058-.098.198-.212.305-.269.247-.277.627-.04 1.17.097.215.17.421.17.454 0 .033-.301.272-.668.536a7.611 7.611 0 0 0-1.164 1.047c-.464.544-1.172 1.137-1.343 1.137-.05 0-.082.033-.082.083 0 .041.065.082.147.082.114 0 .122.017.016.083-.065.04-.09.099-.065.132.057.049.163-.009.993-.57.253-.172.497-.288.538-.263.049.025.081.214.081.42 0 .462.204.503.285.05.024-.165.114-.503.187-.75.139-.429.155-.445.668-.676.293-.132.7-.33.92-.445l.383-.206.073.19c.04.098.187.304.326.46l.252.273-.269.791c-.154.445-.26.866-.236.94.041.214.261.181.261-.041 0-.198.285-.717.39-.717.033 0 .107.098.155.222.082.206.09.165.098-.313.008-.454.033-.553.155-.585.212-.058.48.066.537.239.025.082.22.296.44.486.285.255.423.321.546.28.114-.041.22-.008.358.116.17.148.187.156.146.024-.048-.123-.024-.14.114-.099.163.058.171.05.057-.115-.081-.107-.114-.305-.097-.511.032-.412-.18-.874-.578-1.236-.196-.182-.285-.338-.285-.495 0-.19.024-.215.187-.173.179.041.179.041.032-.132-.228-.256-.105-.371.253-.215.39.165 1.058.586 1.335.841.342.314.359.627.106 1.748-.269 1.195-.236 1.541.18 2.151.284.43.292.437.235 1.014-.032.322-.09 1.014-.13 1.534-.081 1.17-.26 1.747-.798 2.58-.39.61-.619 1.187-1.075 2.778-.203.717-.252.791-.643.972-.269.132-.301.174-.35.594a9.569 9.569 0 0 1-.163.866c-.073.239-.09.527-.057.675.065.347.285.685.44.685.065 0 .228-.248.366-.56.139-.306.415-.891.61-1.295.196-.412.522-1.105.717-1.542.204-.437.48-.972.627-1.178.147-.215.424-.742.627-1.18.44-.947.83-1.434 1.694-2.11 1.172-.914 1.53-1.145 2.728-1.722C31.145 15.999 32 15.389 32 14.91c0-.305-.22-.676-.48-.816-.391-.198-1.352-.429-2.932-.7-.83-.149-1.588-.297-1.693-.339-.171-.065-.188-.115-.188-.684 0-.503-.049-.75-.252-1.261-.399-1.03-1.148-2.415-1.498-2.794-.383-.404-.643-.487-1.75-.57-.546-.032-.905-.106-1.222-.247a6.43 6.43 0 0 0-.806-.288 2.628 2.628 0 0 1-.652-.297c-.31-.214-.383-.23-.448-.132Zm8.337 8.738c-.154.124-.472.396-.708.61-.53.486-.97.783-1.262.85-.204.049-.228.032-.228-.14 0-.207.138-1.064.211-1.32.041-.148.334-.181 1.662-.214l.61-.008-.285.222ZM11.678 7.17c-.171.207-.188.858-.05 1.517.204.965.766 2.053 1.442 2.754l.562.593-.318-.66c-.651-1.343-.74-2.505-.293-3.684.049-.124-.049-.198-.488-.396-.62-.28-.717-.296-.855-.123Z"/><path fill="#375C2B" d="M7.28 9.446c-.692.058-1.197.181-1.669.42-.57.289-1.685 1.064-2.524 1.756-.798.66-1.71 1.32-1.873 1.36-.04.009-.154.058-.244.107-.09.05-.326.108-.53.116-.195.016-.39.058-.43.099-.147.148 1.497 1.113 2.564 1.492.782.28 2.036.321 2.923.09.83-.206 2.117-.824 2.98-1.426.709-.502 1.8-1.055 2.46-1.253.244-.074.675-.131.952-.131.285 0 .537-.042.562-.091.032-.05-.269-.412-.668-.808C10.464 9.875 8.99 9.306 7.28 9.446Z"/><path fill="#0E3800" d="M11.58 12.9c-1.384.239-2.622 1.005-3.306 2.052-.635.957-.79 1.534-.782 2.894.008.948.041 1.22.22 1.83 1.059 3.528 4.071 6.421 7.426 7.114.652.132 2.402.272 2.32.181-.024-.025-.423-.123-.887-.222-3.2-.66-5.716-2.523-7.043-5.227-.578-1.162-.782-1.912-.839-3.058-.073-1.6.31-2.761 1.246-3.726.88-.915 2.052-1.335 3.737-1.352h.896l-.366-.173c-.709-.321-1.808-.453-2.622-.313Z"/></svg>