<svg width="16" height="16" fill="none" xmlns="http://www.w3.org/2000/svg"><path fill="#fff" d="M0 0h16v16H0z"/><path d="M8.851 2.719c-.566.148-1.16.572-1.45 1.03-.386.614-.414 1.364-.068 2.053l.122.243v-.49c0-.862.216-1.423.761-1.975.391-.4.83-.639 1.348-.746.57-.115.55-.107.407-.14-.212-.054-.888-.037-1.12.025Z" fill="#0E3800"/><path d="M10.04 2.892a.951.951 0 0 1-.204.127c-.13.066-.195.124-.216.202a.558.558 0 0 1-.101.21.361.361 0 0 0-.074.153c0 .029-.049.099-.106.153-.134.123-.138.313-.02.585.049.107.086.21.086.227 0 .016-.151.136-.334.267a3.807 3.807 0 0 0-.582.524c-.232.272-.587.569-.672.569-.025 0-.04.016-.04.04 0 .022.032.042.072.042.057 0 .061.008.009.041-.033.02-.045.05-.033.066.028.025.081-.004.497-.284.126-.087.248-.144.268-.132.025.012.041.107.041.21 0 .231.102.252.143.025.012-.083.057-.251.093-.375.07-.214.078-.223.334-.338.147-.066.35-.165.46-.223l.191-.103.037.095c.02.05.094.153.163.23l.126.137-.134.396c-.078.222-.13.432-.118.47.02.107.13.09.13-.021 0-.1.143-.359.195-.359.017 0 .053.05.078.112.04.103.044.082.049-.157.004-.227.016-.276.077-.293.106-.029.24.033.269.12.012.041.11.148.22.243.142.128.211.16.272.14.057-.02.11-.004.18.058.085.074.093.078.073.012-.025-.062-.012-.07.057-.05.081.03.085.025.028-.057-.04-.054-.057-.152-.049-.256.017-.206-.09-.436-.289-.618-.097-.09-.142-.169-.142-.247 0-.095.012-.107.093-.087.09.021.09.021.017-.066-.114-.127-.053-.185.126-.107.195.083.53.293.668.42.17.157.179.314.053.874-.135.598-.119.771.09 1.076.142.215.146.219.117.507-.016.16-.045.507-.065.767-.04.585-.13.874-.399 1.29-.195.305-.31.593-.537 1.389-.102.358-.127.395-.322.486-.134.066-.15.087-.175.297a4.789 4.789 0 0 1-.082.433.784.784 0 0 0-.028.338c.033.173.143.342.22.342.032 0 .114-.124.183-.28.07-.153.208-.446.305-.648.098-.206.261-.552.359-.77.102-.219.24-.487.313-.59.074-.107.212-.37.314-.59.22-.473.415-.716.847-1.054.586-.458.765-.573 1.363-.862C15.572 7.5 16 7.195 16 6.956a.514.514 0 0 0-.24-.408c-.196-.1-.676-.215-1.466-.35a12.189 12.189 0 0 1-.847-.17c-.085-.033-.093-.057-.093-.342a1.41 1.41 0 0 0-.127-.63c-.199-.516-.574-1.208-.749-1.398-.191-.202-.321-.243-.875-.284-.273-.017-.452-.054-.61-.124a3.224 3.224 0 0 0-.404-.144 1.314 1.314 0 0 1-.325-.148c-.155-.108-.192-.116-.224-.066Zm4.169 4.369a9.337 9.337 0 0 0-.355.305c-.264.243-.484.391-.63.424-.102.025-.115.017-.115-.07 0-.103.07-.532.106-.66.02-.074.167-.09.83-.107l.306-.004-.142.112ZM5.839 3.085c-.086.103-.094.429-.025.759.102.482.383 1.026.721 1.376l.28.297-.158-.33c-.326-.671-.37-1.253-.146-1.842.024-.062-.025-.099-.245-.198-.31-.14-.358-.148-.427-.062Z" fill="#0E3800"/><path d="M3.64 4.223c-.346.029-.598.09-.834.21-.285.144-.843.532-1.262.878-.4.33-.855.66-.937.68a.637.637 0 0 0-.122.054.749.749 0 0 1-.265.057c-.097.009-.195.03-.215.05-.074.074.749.556 1.282.746.39.14 1.018.16 1.462.045.415-.103 1.058-.412 1.49-.713.354-.251.9-.527 1.23-.626.121-.037.337-.066.476-.066.142 0 .268-.02.28-.046.017-.024-.134-.206-.333-.403-.66-.652-1.397-.936-2.252-.866Z" fill="#375C2B"/><path d="M5.79 5.95c-.692.12-1.311.503-1.653 1.026-.318.478-.395.767-.39 1.447.003.474.02.61.11.915.528 1.764 2.035 3.21 3.712 3.557.326.066 1.201.136 1.16.09a3.444 3.444 0 0 0-.443-.11c-1.6-.33-2.858-1.262-3.522-2.614-.29-.581-.39-.956-.42-1.529-.036-.8.155-1.38.624-1.863.44-.457 1.025-.668 1.868-.676h.448l-.183-.086c-.354-.161-.904-.227-1.311-.157Z" fill="#0E3800"/></svg>