<svg xmlns="http://www.w3.org/2000/svg" width="52" height="52" fill="none"><rect width="52" height="52" fill="url(#a)" rx="8"/><path fill="#fff" d="M23.338 7.067c-1.57.753-1.934 2.7-.72 3.891.505.487.935.649 1.74.649h.681l2.926 2.985 2.916 2.976v3.176c0 2.565.028 3.223.131 3.433.075.143.383.506.692.82l.56.553-.046.563c-.094.973.44 1.927 1.318 2.404.813.438 2.019.2 2.7-.525.375-.39.72-1.192.711-1.65-.01-.801-.533-1.669-1.28-2.117-.384-.23-.542-.267-1.187-.267-.72 0-.757-.01-1.094-.344l-.355-.343V16.72l-3.262-3.348-3.262-3.338.047-.524c.093-1.088-.346-1.889-1.29-2.375-.72-.372-1.243-.382-1.926-.067Zm1.271 1.984c.131.229.131.267-.028.448-.42.477-1.093-.038-.738-.553.196-.286.589-.229.767.105Zm10.273 16.976c.14.124.15.477 0 .63-.066.067-.225.114-.356.114-.448 0-.626-.429-.308-.782.159-.171.411-.162.664.038ZM15.145 6.937c-.402.162-1.037.75-1.242 1.159-.29.55-.29 1.567-.01 2.117.476.922 1.466 1.454 2.428 1.32l.448-.056 3.624 3.637 3.623 3.637-.01.655v.646l-.429.39c-1.345 1.206-1.083 3.152.551 4.026.439.238 1.41.209 1.886-.038.878-.465 1.345-1.225 1.354-2.175 0-.712-.326-1.434-.85-1.861l-.364-.294v-.893c0-.541-.046-1.007-.13-1.197-.075-.17-1.747-1.947-3.922-4.15l-3.792-3.846.056-.532c.047-.39.019-.674-.102-1.025-.206-.627-.878-1.349-1.41-1.51-.458-.133-1.392-.143-1.71-.01Zm1.204 1.928c.168.218.075.56-.205.712-.224.133-.262.133-.44-.028-.214-.2-.251-.532-.083-.703.159-.161.588-.142.728.019Zm8.89 12.992c.336.284.243.835-.15.835-.4 0-.522-.095-.522-.437 0-.436.355-.645.672-.398ZM33.034 8.344c-1.18.486-1.828 1.757-1.455 2.832.433 1.233 1.789 1.943 3.076 1.597.354-.084.62-.261 1.042-.663l.58-.542h2.594l2.034 1.934 2.034 1.925v2.01l-.344.242c-.412.3-.786.897-.923 1.458-.216.916.314 1.953 1.267 2.467 1.2.635 2.742.196 3.41-.99.118-.216.167-.515.177-1.01 0-.85-.255-1.401-.894-1.906l-.423-.337.01-1.364.01-1.364-.481-.467a307.765 307.765 0 0 0-2.644-2.514c-1.631-1.551-2.24-2.074-2.506-2.14-.187-.047-1.012-.093-1.837-.093h-1.494l-.521-.496c-.334-.308-.678-.532-.934-.607-.53-.15-1.375-.14-1.778.028Zm1.316 1.962c.276.393-.324.907-.707.608-.167-.14-.177-.58-.02-.73.177-.167.57-.102.727.122Zm10.063 8.924c.354.337.148.785-.334.73-.648-.066-.59-.804.07-.907.038 0 .156.075.264.177Z"/><path fill="#fff" d="M8.122 8.34c-.505.19-1.039.67-1.31 1.167-.224.412-.262.584-.262 1.216v.746l-2.573 2.633-2.573 2.632-.028 3.235c-.019 1.771 0 3.331.028 3.465.066.268 2.115 2.432 2.498 2.642.206.106.908.134 3.696.134h3.443l1.89 1.934 1.9 1.943 4.014.048 4.023.048.337.402c.178.22.561.517.851.66 1.516.756 3.312-.46 3.312-2.25 0-.899-.73-1.904-1.58-2.2-.89-.307-1.89-.02-2.527.727l-.365.42-3.565.02-3.565.02-1.918-1.963-1.918-1.962-3.583-.03L4.772 24l-.627-.641-.636-.632v-5.083L5.82 15.28l2.302-2.354.496.047c.777.087 1.31-.115 1.88-.698.974-.996.955-2.49-.065-3.418-.655-.603-1.544-.804-2.311-.517Zm1.076 1.904c.16.163.14.46-.047.67-.187.21-.383.22-.608.01-.187-.172-.215-.345-.075-.613.112-.21.552-.249.73-.067Zm16.215 18.608c.065.192.056.306-.056.479-.244.392-.796.23-.796-.23 0-.345.16-.498.487-.498.206 0 .29.058.365.25Z"/><path fill="#fff" d="M11.21 15.154c-.733.26-1.4 1.04-1.582 1.86-.162.752.076 1.475.725 2.13.572.579 1.106.772 1.916.685l.534-.058 2.174 2.17 2.174 2.168-.047.56c-.191 2.052 2.002 3.421 3.661 2.293 1.297-.877 1.506-2.477.477-3.605-.553-.617-1.05-.82-1.888-.79l-.677.019-2.165-2.188-2.164-2.179.038-.675c.029-.54 0-.751-.171-1.099-.258-.54-.916-1.147-1.412-1.291-.448-.135-1.201-.135-1.592 0Zm1.136 1.966c.2.193.19.357-.029.627-.153.193-.22.212-.448.135-.486-.174-.4-.916.114-.916.115 0 .286.068.363.154Zm7.475 7.48c.124.126.153.454.038.627-.124.203-.553.25-.725.077-.324-.327-.133-.82.325-.82.133 0 .295.05.362.117ZM42.514 24.86c-.53.259-1.048.793-1.258 1.27-.22.496-.18 1.345.08 1.87.12.248.42.62.669.83l.46.382-2.657 2.548c-1.458 1.402-2.706 2.643-2.766 2.757-.06.115-.11.363-.11.544 0 .239-.06.363-.199.44-.11.056-.38.314-.59.572-.528.639-.688 1.316-.468 2.032.17.553.559 1.097.978 1.365.24.162.28.248.28.658 0 .458-.03.506-.44.83-1.727 1.393-.759 4.122 1.498 4.199.789.019 1.308-.172 1.837-.678.5-.477.799-1.154.799-1.765-.01-.649-.54-1.565-1.098-1.918-.26-.162-.3-.248-.3-.63 0-.391.04-.467.4-.744.22-.162.519-.506.669-.754.24-.372.28-.553.28-1.116-.01-.792-.26-1.336-.88-1.89l-.409-.362 2.716-2.596c1.557-1.498 2.726-2.68 2.726-2.786.01-.105.02-.305.03-.448.01-.172.18-.392.509-.687l.49-.44H52V25.673h-6.241l-.35-.344c-.489-.496-1.008-.706-1.787-.696-.489 0-.758.057-1.108.229Zm1.528 1.9c.13.171.09.334-.12.534-.24.23-.43.239-.64.038-.378-.362.02-1.011.48-.782.12.057.24.152.28.21ZM38.48 37.218c.27.276.1.706-.28.744-.519.057-.758-.391-.399-.763.21-.23.45-.22.68.019Zm-.05 5.248c.27.257.25.534-.05.725-.23.143-.27.143-.499 0-.32-.2-.33-.563-.03-.763.29-.191.34-.191.58.038ZM10.126 30.183c-.668.165-1.306.66-1.61 1.217-.364.677-.393 1.07-.138 1.702.265.65.57.997 1.169 1.326.383.21.56.248 1.228.248h.775l1.238 1.161c.678.632 1.336 1.199 1.454 1.254.137.064.952.1 2.23.1h2.022l.57.531c.619.576 1.05.75 1.856.75.639 0 1.405-.357 1.876-.878l.354-.403H29.475l.177.247c.186.275.726.76.854.76.04 0 .069.887.069 1.967v1.958l-.344.256c-1.493 1.098-1.296 3.138.363 3.906 1.258.586 2.721.073 3.409-1.198.451-.842.147-1.967-.717-2.644l-.452-.348v-3.86l.422-.275c.825-.55 1.179-1.73.766-2.617-.766-1.665-3.113-1.985-4.233-.567l-.245.302-3.212.01H23.11l-.51-.495c-.57-.54-.963-.695-1.798-.695-.658 0-1.404.338-1.817.814l-.324.375h-3.457l-1.06-.979-1.061-.97.068-.393c.148-.933-.432-1.94-1.355-2.36-.678-.293-1.1-.348-1.67-.202Zm.973 2.05c.078.31-.079.512-.442.549-.344.036-.57-.23-.462-.54.138-.393.796-.403.904-.01Zm10.067 3.65c.216.183.226.375.01.595-.324.338-.816.119-.816-.357 0-.375.472-.522.806-.238Zm10.843 0c.196.247.167.558-.069.668-.304.155-.668.037-.737-.238-.117-.448.511-.787.806-.43Zm-.05 7.987c.217.11.256.54.07.714-.276.256-.865.018-.865-.348 0-.201.255-.457.452-.457.088 0 .236.045.344.091Z"/><defs><linearGradient id="a" x1="0" x2="52" y1="26.491" y2="26.491" gradientUnits="userSpaceOnUse"><stop stop-color="#00C99F"/><stop offset="1" stop-color="#009ACB"/></linearGradient></defs></svg>