<svg width="52" height="52" fill="none" xmlns="http://www.w3.org/2000/svg"><path fill-rule="evenodd" clip-rule="evenodd" d="M26 0a25.926 25.926 0 0 1 18.385 7.615A25.926 25.926 0 0 1 52 26a25.926 25.926 0 0 1-7.615 18.385A25.926 25.926 0 0 1 26 52a25.927 25.927 0 0 1-18.385-7.615A25.925 25.925 0 0 1 0 26 25.926 25.926 0 0 1 7.615 7.615 25.927 25.927 0 0 1 26 0Zm8.143 6.341a21.198 21.198 0 0 0-8.14-1.614h-.006a21.2 21.2 0 0 0-15.037 6.229l-.004.004a21.199 21.199 0 0 0-6.229 15.037v.006a21.198 21.198 0 0 0 6.229 15.037l.004.004a21.198 21.198 0 0 0 15.037 6.229h.006a21.199 21.199 0 0 0 15.037-6.229l.004-.004a21.197 21.197 0 0 0 6.229-15.037v-.006a21.199 21.199 0 0 0-6.229-15.037l-.004-.004a21.198 21.198 0 0 0-6.897-4.615Z" fill="#375C2B"/><path fill-rule="evenodd" clip-rule="evenodd" d="M39.49 17.238c.922.923.922 2.42 0 3.342L25.306 34.762a2.364 2.364 0 0 1-3.342 0l-7.091-7.09a2.364 2.364 0 0 1 3.343-3.343l5.42 5.42 12.51-12.511a2.364 2.364 0 0 1 3.342 0Z" fill="#375C2B"/></svg>